<svg xmlns="http://www.w3.org/2000/svg" width="1200" height="675" viewBox="0 0 1200 675">
<defs>
  <linearGradient id="bg" x1="0" y1="0" x2="1" y2="1"><stop stop-color="#eaf4ff"/><stop offset="1" stop-color="#c9def4"/></linearGradient>
  <linearGradient id="desk" x1="0" y1="0" x2="0" y2="1"><stop stop-color="#dec9b3"/><stop offset="1" stop-color="#c9ad90"/></linearGradient>
  <filter id="sh"><feDropShadow dx="0" dy="14" stdDeviation="18" flood-opacity=".22"/></filter>
</defs>
<rect width="1200" height="675" fill="url(#bg)"/><rect y="500" width="1200" height="175" fill="url(#desk)"/>
<g filter="url(#sh)">
 <rect x="130" y="88" width="380" height="500" rx="46" fill="#222d42"/>
 <rect x="154" y="116" width="332" height="442" rx="31" fill="#f8fbff"/>
</g>
<g>
 <rect x="182" y="150" width="118" height="102" rx="15" fill="#70b4e4"/><circle cx="210" cy="177" r="16" fill="#fff0b0"/><path d="M190 238l41-42 36 35 25-20v29z" fill="#ffffff" opacity=".6"/>
 <rect x="316" y="150" width="118" height="102" rx="15" fill="#efb563"/><circle cx="343" cy="177" r="16" fill="#fff0b0"/><path d="M324 238l41-42 36 35 25-20v29z" fill="#ffffff" opacity=".6"/>
 <rect x="182" y="268" width="118" height="102" rx="15" fill="#7fc59a"/><circle cx="210" cy="295" r="16" fill="#fff0b0"/><path d="M190 356l41-42 36 35 25-20v29z" fill="#ffffff" opacity=".6"/>
 <rect x="316" y="268" width="118" height="102" rx="15" fill="#bd8bd0"/><circle cx="343" cy="295" r="16" fill="#fff0b0"/><path d="M324 356l41-42 36 35 25-20v29z" fill="#ffffff" opacity=".6"/>
 <rect x="202" y="405" width="230" height="118" rx="18" fill="#edf1f6"/><rect x="267" y="450" width="100" height="55" rx="8" fill="#a6b1bf"/><rect x="255" y="437" width="124" height="15" rx="7" fill="#798899"/>
</g>
<g filter="url(#sh)">
 <circle cx="715" cy="180" r="78" fill="#fff"/><circle cx="810" cy="148" r="86" fill="#fff"/><circle cx="905" cy="191" r="69" fill="#fff"/><rect x="660" y="180" width="300" height="88" rx="44" fill="#fff"/>
</g>
<g>
 <rect x="626" y="335" width="150" height="105" rx="18" fill="#70b4e4"/><path d="M638 425l43-44 37 34 45-47v57z" fill="#fff" opacity=".55"/>
 <rect x="795" y="375" width="150" height="105" rx="18" fill="#efb563"/><path d="M807 465l43-44 37 34 45-47v57z" fill="#fff" opacity=".55"/>
 <rect x="963" y="323" width="150" height="105" rx="18" fill="#7fc59a"/><path d="M975 413l43-44 37 34 45-47v57z" fill="#fff" opacity=".55"/>
 <path d="M575 430c110 45 225 25 322-50 53-41 81-88 91-136" fill="none" stroke="#466a9b" stroke-width="14" stroke-linecap="round"/>
 <path d="M960 250l38-28 4 48z" fill="#466a9b"/>
</g>
</svg>